<?xml version="1.0" encoding="UTF-8" standalone="no"?>
<!-- Created with Inkscape (http://www.inkscape.org/) -->

<svg
   xmlns:dc="http://purl.org/dc/elements/1.1/"
   xmlns:cc="http://creativecommons.org/ns#"
   xmlns:rdf="http://www.w3.org/1999/02/22-rdf-syntax-ns#"
   xmlns:svg="http://www.w3.org/2000/svg"
   xmlns="http://www.w3.org/2000/svg"
   xmlns:sodipodi="http://sodipodi.sourceforge.net/DTD/sodipodi-0.dtd"
   xmlns:inkscape="http://www.inkscape.org/namespaces/inkscape"
   width="5in"
   height="3in"
   viewBox="0 0 450 270"
   id="svg2"
   version="1.1"
   inkscape:version="0.91 r13725"
   sodipodi:docname="about.svg">
  <defs
     id="defs4" />
  <sodipodi:namedview
     id="base"
     pagecolor="#ffffff"
     bordercolor="#666666"
     borderopacity="1.0"
     inkscape:pageopacity="0.0"
     inkscape:pageshadow="2"
     inkscape:zoom="0.98994949"
     inkscape:cx="372.6611"
     inkscape:cy="163.53992"
     inkscape:document-units="px"
     inkscape:current-layer="layer1"
     showgrid="true"
     inkscape:window-width="1364"
     inkscape:window-height="751"
     inkscape:window-x="0"
     inkscape:window-y="15"
     inkscape:window-maximized="1"
     units="in"
     width="5mm"
     height="7in"
     inkscape:snap-nodes="false">
    <inkscape:grid
       type="xygrid"
       id="grid3365" />
  </sodipodi:namedview>
  <metadata
     id="metadata7">
    <rdf:RDF>
      <cc:Work
         rdf:about="">
        <dc:format>image/svg+xml</dc:format>
        <dc:type
           rdf:resource="http://purl.org/dc/dcmitype/StillImage" />
        <dc:title />
      </cc:Work>
    </rdf:RDF>
  </metadata>
  <g
     inkscape:label="Layer 1"
     inkscape:groupmode="layer"
     id="layer1"
     transform="translate(0,-782.3622)"
     style="display:inline">
    <path
       style="fill:none;fill-rule:evenodd;stroke:#000000;stroke-width:1.37262022px;stroke-linecap:butt;stroke-linejoin:miter;stroke-opacity:1"
       d="M 18.136655,919.879 C 174.23856,750.748 282.0957,749.31943 435.1931,920.23629"
       id="path3386"
       inkscape:connector-curvature="0"
       sodipodi:nodetypes="cc" />
    <path
       style="fill:none;fill-rule:evenodd;stroke:#000000;stroke-width:1.38593686px;stroke-linecap:butt;stroke-linejoin:miter;stroke-opacity:1"
       d="M 18.16143,920.65572 C 124.23856,1130.748 394.23856,1040.748 434.0808,921.06663"
       id="path3386-8"
       inkscape:connector-curvature="0"
       sodipodi:nodetypes="cc" />
    <path
       style="fill:none;fill-rule:evenodd;stroke:#000000;stroke-width:1px;stroke-linecap:butt;stroke-linejoin:miter;stroke-opacity:1"
       d="M 209.95285,800.03371 C 170,912.3622 110.30999,1012.1766 110.30999,1012.1766 l 226.90826,0.8876 -21.58086,-45.57689 -23.60732,-0.31074 8.27556,24.58158 L 152.0957,991.46229 241.38142,800.748 Z"
       id="path4071"
       inkscape:connector-curvature="0"
       sodipodi:nodetypes="ccccccccc" />
    <path
       style="fill:none;fill-rule:evenodd;stroke:#000000;stroke-width:1px;stroke-linecap:butt;stroke-linejoin:miter;stroke-opacity:1"
       d="m 249.28932,817.21247 59.3934,132.12183 -22.52538,0.50507 -17.47462,-41.01015 -58.98985,0 10,-22.02031 41.01015,0.50508 -20.40354,-50.50507 z"
       id="path4073"
       inkscape:connector-curvature="0"
       sodipodi:nodetypes="ccccccccc" />
    <path
       style="fill:#550000;fill-opacity:0.21176471"
       d="m 240.07392,229.59027 c -40.00204,-0.18194 -85.27537,-0.36373 -100.60739,-0.40397 l -27.87641,-0.0732 4.56207,-7.95495 c 33.592,-58.5749 68.17704,-131.923429 89.84276,-190.54002 l 4.3871,-11.869292 4.23933,-0.127007 c 2.33164,-0.06985 9.0287,0.04379 14.88237,0.252538 l 10.64304,0.379545 -44.57314,95.206876 -44.57314,95.20688 74.79752,0.12793 c 41.13864,0.0704 74.89769,0.0278 75.02011,-0.0946 0.12241,-0.12242 -1.50571,-5.40763 -3.61805,-11.74492 -2.11235,-6.33729 -3.84063,-11.69713 -3.84063,-11.91077 0,-0.21363 4.9102,-0.32717 10.91155,-0.2523 l 10.91153,0.13611 10.05119,21.20067 c 5.52815,11.66037 10.17922,21.60406 10.3357,22.09709 0.26743,0.8426 -0.40737,0.89035 -11.24001,0.79531 -6.33849,-0.0556 -44.25346,-0.24996 -84.2555,-0.43189 z"
       id="path3380"
       inkscape:connector-curvature="0"
       transform="translate(0,782.3622)" />
    <path
       style="fill:#550000;fill-opacity:0.21176471"
       d="m 295.77212,229.84218 c -0.0802,-0.0802 -41.39661,-0.2991 -91.81419,-0.48639 -50.41757,-0.18728 -91.77391,-0.44304 -91.90298,-0.56836 -0.12907,-0.12531 0.046,-0.61469 0.38896,-1.0875 0.343,-0.47281 0.97561,-1.54151 1.4058,-2.37489 0.43019,-0.83337 1.33313,-2.42436 2.00653,-3.53553 0.6734,-1.11117 1.58456,-2.70216 2.0248,-3.53553 0.44025,-0.83338 1.45456,-2.65166 2.25403,-4.04062 0.79947,-1.38895 1.83015,-3.32087 2.2904,-4.29314 0.46025,-0.97228 1.02424,-1.88597 1.2533,-2.03045 0.22906,-0.14446 0.90175,-1.28088 1.49487,-2.52538 0.59311,-1.24448 1.85775,-3.62641 2.81031,-5.29316 0.95255,-1.66675 2.44034,-4.39416 3.30619,-6.06092 0.86585,-1.66675 2.62705,-4.98625 3.91378,-7.37666 15.31502,-28.45131 36.46539,-72.68577 50.56852,-105.760421 2.84283,-6.667007 5.48446,-12.860505 5.87028,-13.763328 0.38582,-0.902824 1.05779,-2.493815 1.49326,-3.535534 0.43548,-1.04172 1.0341,-2.462247 1.33027,-3.156727 0.29617,-0.69448 0.76578,-1.830902 1.04357,-2.525381 l 1.01015,-2.525382 c 0.2778,-0.69448 0.70195,-1.77408 0.94258,-2.399112 0.24063,-0.625032 0.63757,-1.647811 0.88211,-2.272843 0.24454,-0.625032 0.83995,-2.159201 1.32316,-3.409265 0.4832,-1.250064 1.05544,-2.727412 1.27165,-3.282996 0.21621,-0.555584 0.75722,-1.839997 1.20223,-2.854251 0.44501,-1.014254 0.80911,-2.067875 0.80911,-2.341379 0,-0.273503 0.33953,-1.148292 0.7545,-1.943973 0.41498,-0.795682 0.75591,-1.831027 0.75762,-2.300769 0.002,-0.469742 0.21291,-0.983737 0.46933,-1.142214 0.25642,-0.158475 0.61877,-0.982694 0.80521,-1.831597 0.18646,-0.848902 0.65711,-2.15318 1.04591,-2.898396 0.38879,-0.745216 0.70829,-1.714805 0.71001,-2.154642 0.002,-0.439837 0.17357,-0.970167 0.38192,-1.178511 0.20834,-0.208344 0.39785,-0.530331 0.42112,-0.715525 0.0233,-0.185195 0.30739,-0.961749 0.63135,-1.725677 0.32396,-0.763928 0.81068,-1.957171 1.0816,-2.651651 l 0.49257,-1.26269 7.96746,-0.09217 c 8.94407,-0.103464 12.38245,-0.02708 17.68513,0.392878 3.40797,0.269903 3.62153,0.355432 3.13895,1.257138 -0.28479,0.532143 -0.40558,0.967532 -0.26841,0.967532 0.13716,0 -0.67008,1.704632 -1.79387,3.788072 -1.1238,2.08344 -1.904,3.788072 -1.73379,3.788072 0.1702,0 -0.62609,1.704633 -1.76955,3.788072 -1.14346,2.08344 -1.94366,3.788072 -1.77823,3.788072 0.16543,0 -0.74379,1.931917 -2.02048,4.293148 -1.27669,2.361232 -2.19641,4.293149 -2.04382,4.293149 0.1526,0 -0.64202,1.704632 -1.76581,3.788072 -1.1238,2.083439 -1.904,3.788072 -1.73379,3.788072 0.1702,0 -0.62609,1.704632 -1.76955,3.788072 -1.14346,2.08344 -1.94366,3.788072 -1.77823,3.788072 0.16543,0 -0.74378,1.931917 -2.02048,4.293148 -1.27669,2.361232 -2.1913,4.293149 -2.03245,4.293149 0.15884,0 -0.52223,1.475494 -1.51349,3.278879 -0.99127,1.80338 -1.8518,3.616149 -1.9123,4.028367 -0.10295,0.701415 -1.0909,2.766646 -5.98783,12.516997 -1.08125,2.152888 -1.84577,3.914341 -1.69894,3.914341 0.14683,0 -0.65251,1.704633 -1.7763,3.788072 -1.12379,2.08344 -1.90871,3.788077 -1.74425,3.788077 0.16445,0 -0.74557,1.93191 -2.02226,4.29314 -1.27669,2.36124 -2.19641,4.29315 -2.04382,4.29315 0.15259,0 -0.64202,1.70463 -1.76581,3.78807 -1.1238,2.08344 -1.91929,3.78808 -1.76777,3.78808 0.15152,0 -0.64398,1.70463 -1.76776,3.78807 -1.1238,2.08344 -1.90871,3.78807 -1.74426,3.78807 0.16445,0 -0.74556,1.93192 -2.02226,4.29315 -1.27669,2.36123 -2.19641,4.29315 -2.04382,4.29315 0.1526,0 -0.64202,1.70463 -1.76581,3.78807 -1.12379,2.08344 -1.91929,3.78807 -1.76777,3.78807 0.15152,0 -0.64397,1.70463 -1.76776,3.78807 -1.1238,2.08344 -1.90871,3.78808 -1.74426,3.78808 0.16445,0 -0.74556,1.93191 -2.02225,4.29314 -1.2767,2.36123 -2.19642,4.29315 -2.04382,4.29315 0.15259,0 -0.64203,1.70463 -1.76582,3.78807 -1.12379,2.08344 -1.904,3.78808 -1.73379,3.78808 0.17021,0 -0.62608,1.70463 -1.76954,3.78807 -1.14346,2.08344 -1.94367,3.78807 -1.77823,3.78807 0.16543,0 -0.74379,1.93192 -2.02048,4.29315 -1.2767,2.36123 -2.19642,4.29315 -2.04382,4.29315 0.15259,0 -0.64203,1.70463 -1.76581,3.78807 -1.1238,2.08344 -1.90401,3.78807 -1.7338,3.78807 0.17021,0 -0.62608,1.70463 -1.76954,3.78807 -1.14346,2.08344 -1.94366,3.78807 -1.77823,3.78807 0.16543,0 -0.74379,1.93192 -2.02048,4.29315 -1.2767,2.36123 -2.18506,4.29315 -2.01858,4.29315 0.16647,0 -0.38132,1.21198 -1.21732,2.69329 -0.836,1.48131 -1.36827,2.84501 -1.18283,3.03046 0.43809,0.43809 149.67139,0.44236 149.67139,0.004 0,-0.82724 -5.71733,-18.17153 -6.17535,-18.73375 -0.28288,-0.34724 -0.34503,-0.63135 -0.1381,-0.63135 0.20692,0 0.0933,-0.34092 -0.25254,-0.75761 -0.34582,-0.41669 -0.45947,-0.75762 -0.25254,-0.75762 0.20692,0 0.13411,-0.29172 -0.1618,-0.64828 -1.47633,-1.77886 0.31722,-1.99758 15.64902,-1.90842 l 5.3857,0.0313 2.11476,3.91434 c 1.16313,2.15289 2.19679,4.33384 2.29703,4.84656 0.10024,0.51272 1.21507,2.84238 2.47739,5.17703 1.26232,2.33464 2.16881,4.24481 2.01442,4.24481 -0.15438,0 0.69587,1.8751 1.88944,4.16688 1.19358,2.29179 2.11422,4.33734 2.04587,4.54569 -0.0683,0.20834 0.14091,0.37881 0.465,0.37881 0.32409,0 0.44312,0.14612 0.26452,0.32472 -0.1786,0.1786 0.63494,2.16734 1.80786,4.41942 1.17292,2.25208 2.07666,4.26515 2.00831,4.4735 -0.0683,0.20834 0.10302,0.3788 0.38081,0.3788 0.2778,0 0.44826,0.18233 0.37881,0.40517 -0.0695,0.22284 0.42366,1.58589 1.0958,3.02899 0.67214,1.4431 1.05098,2.79495 0.84187,3.0041 -0.34584,0.3459 -38.96,0.69149 -39.29977,0.35173 l 0,0 z"
       id="path3382"
       inkscape:connector-curvature="0"
       transform="translate(0,782.3622)" />
    <path
       style="fill:#550000;fill-opacity:0.21176471"
       d="m 254.21605,229.56045 c -8.88934,-0.17065 -39.02453,-0.34111 -66.96708,-0.37881 -56.06741,-0.0756 -75.4635,-0.40917 -74.75911,-1.28559 0.24343,-0.30289 3.00433,-5.09639 6.13533,-10.65223 13.40471,-23.78614 30.78509,-56.8111 29.90787,-56.82881 -0.21066,-0.004 -0.12696,-0.17472 0.186,-0.37881 0.81907,-0.53413 6.76396,-12.5677 6.39235,-12.93931 -0.17116,-0.17116 -0.0326,-0.31121 0.30786,-0.31121 0.34049,0 0.4786,-0.22728 0.30691,-0.50507 -0.17168,-0.2778 -0.058,-0.50508 0.25254,-0.50508 0.31058,0 0.42422,-0.22728 0.25254,-0.50508 -0.17169,-0.27779 -0.058,-0.50507 0.25253,-0.50507 0.31059,0 0.42423,-0.22729 0.25254,-0.50508 -0.17168,-0.27779 -0.0336,-0.50508 0.30691,-0.50508 0.34049,0 0.48121,-0.13786 0.31271,-0.30635 -0.1685,-0.1685 -0.0887,-0.56625 0.17725,-0.88389 0.96859,-1.15668 6.44452,-12.86575 6.15314,-13.15713 -0.16491,-0.16491 -0.0346,-0.29984 0.28942,-0.29984 0.32409,0 0.5349,-0.17046 0.46847,-0.3788 -0.0664,-0.20835 0.75803,-2.19709 1.83216,-4.41942 4.36684,-9.03494 6.48147,-13.65154 13.41831,-29.294425 0.49274,-1.111168 1.32444,-2.911674 1.84821,-4.001124 0.52377,-1.089449 0.91207,-2.112229 0.86289,-2.272843 -0.0492,-0.160614 0.33198,-0.973878 0.84704,-1.807254 0.51505,-0.833376 0.94785,-1.742513 0.96177,-2.020305 0.0234,-0.467847 0.79214,-2.201193 2.35189,-5.303301 0.34918,-0.69448 0.65099,-1.435538 0.67068,-1.646791 0.0197,-0.211253 0.38594,-1.06119 0.81388,-1.888743 0.42795,-0.827552 0.76887,-1.623047 0.75762,-1.767767 -0.0113,-0.144719 0.3309,-0.942593 0.76035,-1.77306 0.42945,-0.830466 0.6561,-1.509935 0.50367,-1.509935 -0.15244,0 0.0951,-0.568211 0.55019,-1.262691 0.45504,-0.69448 0.68232,-1.262691 0.50508,-1.262691 -0.17726,0 0.05,-0.56821 0.50507,-1.26269 0.45504,-0.69448 0.63075,-1.266172 0.39045,-1.270425 -0.24029,-0.0042 -0.18702,-0.174717 0.11838,-0.378807 0.56995,-0.380893 7.56481,-17.374185 7.86436,-19.105682 0.0917,-0.529852 0.3018,-1.077008 0.46696,-1.215904 0.34904,-0.293527 4.02446,-9.718217 4.17345,-10.701737 0.0552,-0.364364 0.24541,-0.894131 0.42272,-1.177261 0.74,-1.181674 2.37134,-5.98541 2.15275,-6.339099 -0.13034,-0.210896 -0.0456,-0.459681 0.18834,-0.552856 0.23392,-0.09317 1.06188,-1.846464 1.8399,-3.896201 l 1.41459,-3.726793 13.83029,0.226202 c 8.98565,0.146965 14.02249,0.418392 14.37895,0.774858 0.39483,0.394822 -3.66226,9.519108 -14.46991,32.542476 -8.26021,17.596603 -17.23261,36.766793 -19.93867,42.600424 -2.70606,5.833635 -8.38424,17.993345 -12.6182,27.021585 -4.23396,9.02823 -10.03304,21.41523 -12.88684,27.52665 -2.85381,6.11142 -10.32862,22.09014 -16.61068,35.50826 -6.28206,13.41812 -11.42192,24.49823 -11.42192,24.62247 0,0.12423 33.76977,0.22589 75.04396,0.22589 l 75.04395,0 -0.35702,-1.6415 c -0.19636,-0.90283 -0.59312,-2.20971 -0.88169,-2.90419 -0.28857,-0.69448 -0.57213,-1.43315 -0.63013,-1.6415 -0.058,-0.20834 -0.15126,-0.43563 -0.20724,-0.50507 -0.056,-0.0694 -0.17175,-0.48203 -0.25728,-0.91685 -0.0855,-0.43482 -1.21738,-4.03962 -2.51521,-8.01067 -1.29782,-3.97105 -2.21462,-7.36548 -2.03733,-7.54318 0.1773,-0.1777 4.93949,-0.39978 10.58264,-0.49351 l 10.26028,-0.17043 3.40325,6.98896 c 1.8718,3.84392 4.74379,9.93477 6.3822,13.53522 1.63842,3.60044 3.14206,6.66878 3.34143,6.81853 0.19938,0.14974 0.41318,0.53797 0.47514,0.86273 0.062,0.32475 1.48248,3.55028 3.15672,7.16783 1.67425,3.61756 3.04409,6.93158 3.04409,7.36449 0,0.69351 -1.84688,0.79911 -15.5311,0.88801 -30.02133,0.19502 -49.02068,0.14867 -65.02857,-0.15864 z"
       id="path3384"
       inkscape:connector-curvature="0"
       transform="translate(0,782.3622)" />
    <path
       style="fill:#550000;fill-opacity:0.21176471"
       d="m 184.26299,229.0658 c -37.08523,-0.21227 -68.3577,-0.57257 -69.49438,-0.80066 l -2.0667,-0.41472 5.30017,-9.34391 c 10.62299,-18.72775 20.63562,-37.66938 33.20387,-62.81422 7.06271,-14.13012 12.72909,-25.87267 12.59196,-26.09456 -0.13714,-0.22189 -0.0577,-0.47967 0.17661,-0.57285 0.62992,-0.25053 10.45408,-21.57755 20.66848,-44.868655 3.41609,-7.789448 12.37762,-29.327647 14.58294,-35.048736 2.02287,-5.247737 10.1133,-26.58229 10.91996,-28.795993 l 0.53485,-1.467809 13.67075,0.340959 c 7.51891,0.187528 13.86005,0.530262 14.09142,0.76163 0.67686,0.676865 -0.81916,3.985956 -28.68653,63.452334 -29.81757,63.6279 -58.31128,124.67771 -58.56754,125.48511 -0.31548,0.99402 0.16207,1.00058 74.72601,1.02676 l 75.04352,0.0264 -0.22567,-1.24446 c -0.12411,-0.68446 -1.60658,-5.58802 -3.29438,-10.89681 -1.68779,-5.30879 -3.06871,-9.94552 -3.06871,-10.30385 0,-0.72346 7.01396,-1.31009 15.66384,-1.31009 l 4.90011,0 7.98658,16.79379 c 9.34282,19.64562 12.00813,25.64835 11.57894,26.07778 -0.4522,0.45245 -72.33726,0.45848 -150.2361,0.0126 l 0,2e-5 z"
       id="path3387"
       inkscape:connector-curvature="0"
       transform="translate(0,782.3622)" />
    <path
       style="fill:#550000;fill-opacity:0.21176471"
       d="m 138.4692,228.63643 c -13.65822,-0.15451 -24.99125,-0.43915 -25.18452,-0.63253 -0.19327,-0.19339 2.49581,-5.42093 5.97573,-11.61676 28.60003,-50.92099 60.01524,-116.532559 79.5158,-166.071025 3.70807,-9.41983 11.19165,-29.059158 11.61843,-30.490492 0.26839,-0.900161 0.85248,-0.928034 12.70746,-0.606417 13.67413,0.37097 15.20405,0.531669 15.20405,1.596991 0,1.224541 -4.33539,10.681583 -31.81549,69.400943 -37.10718,79.29049 -54.9598,117.58901 -55.27218,118.57324 l -0.33877,1.06738 75.02795,0.0463 c 66.13286,0.0408 75.02795,-0.0429 75.02795,-0.70583 0,-0.41368 -1.32763,-4.90933 -2.95029,-9.99034 -3.96829,-12.42585 -3.85253,-11.84717 -2.44064,-12.20153 0.64202,-0.16113 5.24278,-0.44323 10.22392,-0.62688 l 9.05661,-0.33391 4.39936,9.28567 c 2.41966,5.10711 5.75586,12.14228 7.4138,15.63369 4.38291,9.2299 7.63227,16.66147 7.63227,17.4557 0,0.58424 -13.36084,0.67718 -85.48416,0.5946 -47.01628,-0.0538 -96.65906,-0.2243 -110.31728,-0.37881 z"
       id="path3389"
       inkscape:connector-curvature="0"
       transform="translate(0,782.3622)" />
    <path
       style="fill:#550000;fill-opacity:0.21176471"
       d="m 152.59856,228.63719 c -21.16563,-0.16921 -38.66652,-0.49196 -38.89087,-0.71722 -0.44535,-0.44716 -0.001,-1.31012 10.03715,-19.51498 10.11701,-18.34695 15.54091,-28.71202 26.64952,-50.92725 22.3916,-44.77916 38.65086,-81.366234 53.90526,-121.299234 3.44784,-9.025748 6.46089,-16.60255 6.69568,-16.837339 0.60294,-0.602946 26.2284,0.396046 26.88027,1.047911 0.82776,0.827758 5.48094,-9.303797 -66.93913,145.749142 -11.00467,23.56122 -20.00848,43.05085 -20.00848,43.31029 0,0.29011 28.87518,0.47171 75.00382,0.47171 65.59872,0 75.00383,-0.093 75.00383,-0.74128 0,-0.40771 -1.36371,-5.09306 -3.03046,-10.41191 -1.66675,-5.31885 -3.03046,-10.07919 -3.03046,-10.57854 0,-1.15941 1.40983,-1.37252 11.89386,-1.79794 l 8.10579,-0.32891 1.5652,3.46926 c 0.86086,1.90809 4.64898,9.98891 8.41804,17.95737 7.49828,15.85269 9.56515,20.63089 9.11774,21.07852 -0.39958,0.39978 -133.70496,0.45152 -181.37676,0.0704 z"
       id="path3391"
       inkscape:connector-curvature="0"
       transform="translate(0,782.3622)" />
    <path
       style="fill:#550000;fill-opacity:0.21176471"
       d="m 196.30056,228.60804 c -45.18753,-0.1389 -82.30629,-0.39971 -82.48612,-0.57959 -0.40599,-0.40609 1.97885,-5.16756 8.02865,-16.02963 30.45294,-54.67654 60.38878,-118.405442 82.18887,-174.967751 5.47648,-14.209228 6.9309,-17.524504 7.78173,-17.738048 1.31974,-0.331233 24.49162,0.563872 25.59913,0.988866 1.38986,0.53334 2.79553,-2.6034 -36.99861,82.562163 -37.53206,80.32433 -49.48625,106.08258 -49.48625,106.63023 0,0.25586 31.97015,0.44594 75.00382,0.44594 66.57216,0 75.00383,-0.0858 75.00383,-0.76308 0,-0.4197 -1.39639,-5.31909 -3.10309,-10.88753 -2.20703,-7.20088 -2.94679,-10.28074 -2.56182,-10.66571 0.48276,-0.48276 19.18268,-1.76452 19.51914,-1.33791 0.32818,0.41612 15.75533,33.42056 17.27479,36.95723 0.93551,2.17751 1.70094,4.27609 1.70094,4.66351 0,0.91957 -26.95269,1.061 -137.46501,0.72131 z"
       id="path3393"
       inkscape:connector-curvature="0"
       transform="translate(0,782.3622)" />
    <path
       style="fill:#550000;fill-opacity:0.21176471"
       d="m 127.56818,228.22959 c -12.42864,-0.13166 -13.51079,-0.21328 -13.51079,-1.01901 0,-0.48173 2.18569,-4.85324 4.85709,-9.71446 35.28919,-64.21671 62.00362,-120.667127 84.01568,-177.534069 3.11831,-8.055967 6.26315,-15.987999 6.98855,-17.626739 l 1.31889,-2.979527 12.39785,0.288962 c 6.81883,0.158929 12.81252,0.450921 13.31931,0.64887 0.67378,0.263166 0.83993,0.684748 0.61815,1.568401 -0.58362,2.32534 -6.52681,15.245289 -39.95466,86.857832 -40.43747,86.62924 -46.69029,100.1193 -46.69029,100.73131 0,0.28659 29.17757,0.46906 75.00382,0.46906 66.46951,0 75.00383,-0.0866 75.00383,-0.76072 0,-0.4184 -1.37031,-5.34434 -3.04514,-10.94654 -2.26575,-7.57881 -2.88763,-10.28314 -2.42978,-10.56611 0.74772,-0.46212 6.90239,-0.94392 14.03133,-1.09841 l 5.27343,-0.11427 5.18134,10.85914 c 5.82823,12.21489 13.03026,27.98589 13.52206,29.61062 0.2525,0.83416 0.0683,1.14261 -0.82554,1.38206 -1.09426,0.29316 -176.6341,0.24488 -205.07513,-0.0564 z"
       id="path3395"
       inkscape:connector-curvature="0"
       transform="translate(0,782.3622)" />
    <path
       style="fill:#550000;fill-opacity:0.21176471"
       d="m 132.40788,228.12224 c -9.76935,-0.1495 -17.90327,-0.41291 -18.07538,-0.58535 -0.47447,-0.47539 0.26487,-1.94797 9.60564,-19.1319 33.12571,-60.94034 58.16018,-114.500728 80.61993,-172.483549 1.93686,-5.000255 4.22182,-10.774625 5.07768,-12.831933 l 1.55612,-3.740561 12.16818,0.333609 c 12.54137,0.343841 14.44266,0.544562 14.43872,1.524312 -0.001,0.31484 -1.78446,4.549913 -3.96267,9.411272 -4.11577,9.18567 -7.81108,17.134376 -49.07469,105.56094 -29.35435,62.90541 -33.83345,72.60314 -33.83345,73.25304 0,0.31189 27.07725,0.4881 75.00382,0.4881 68.61745,0 75.00383,-0.0693 75.00383,-0.81335 0,-0.44734 -1.25872,-5.04765 -2.79714,-10.22291 -1.53843,-5.17526 -2.73167,-9.86634 -2.65165,-10.42461 0.17005,-1.18639 2.58242,-1.5275 12.99768,-1.83786 l 6.28621,-0.18732 6.43875,13.63706 c 8.86655,18.77907 12.72282,27.52828 12.31365,27.93756 -0.40957,0.40967 -175.31022,0.50834 -201.11523,0.11345 z"
       id="path3397"
       inkscape:connector-curvature="0"
       transform="translate(0,782.3622)" />
    <path
       style="fill:#550000;fill-opacity:0.21176471"
       d="m 139.73163,228.11349 c -13.79725,-0.14469 -25.23317,-0.41053 -25.41315,-0.59076 -0.40889,-0.40947 1.27626,-3.76664 9.08921,-18.10759 11.13599,-20.44053 17.32384,-32.28075 27.18784,-52.02286 21.58308,-43.19704 36.31402,-76.243779 53.02124,-118.945458 2.93456,-7.500383 5.8338,-14.830302 6.44275,-16.28871 l 1.10719,-2.65165 6.62492,0.02374 c 7.8202,0.02802 19.39032,0.704009 19.84581,1.159498 0.61632,0.616323 -3.54541,9.725688 -46.30178,101.347253 -33.4251,71.62582 -40.4077,86.72733 -40.4077,87.39107 0,0.31733 26.64665,0.4922 75.00382,0.4922 65.79285,0 75.00383,-0.0916 75.00383,-0.74553 0,-0.41004 -1.25007,-5.07481 -2.77792,-10.36615 -1.52786,-5.29135 -2.77792,-9.93805 -2.77792,-10.32602 0,-0.38797 0.6808,-0.85493 1.51288,-1.03768 2.23578,-0.49106 17.37089,-1.19152 17.7709,-0.82245 0.42448,0.39164 13.296,27.71896 16.35975,34.73312 1.23045,2.817 2.23719,5.4517 2.23719,5.85487 0,0.60481 -1.75475,0.79167 -10.0313,1.06821 -11.07474,0.37004 -143.86004,0.25057 -183.49756,-0.1651 z"
       id="path3399"
       inkscape:connector-curvature="0"
       transform="translate(0,782.3622)" />
    <path
       style="fill:#550000;fill-opacity:0.21176471"
       d="m 151.34853,228.11699 c -20.1864,-0.14661 -36.84985,-0.41403 -37.02991,-0.59426 -0.41761,-0.41803 1.15448,-3.51678 10.59588,-20.88551 11.65184,-21.43515 20.21925,-37.97801 30.34267,-58.58885 20.66351,-42.06997 31.2954,-66.316122 51.21608,-116.798885 l 4.63384,-11.743023 6.14965,0.02963 c 7.26073,0.03498 19.93037,0.703284 20.29777,1.070674 0.67436,0.674367 -2.1761,6.94376 -41.17932,90.571047 -37.4693,80.33839 -45.44723,97.58023 -45.44723,98.22013 0,0.33992 24.93675,0.51247 75.00382,0.51897 67.42986,0.009 75.00383,-0.0694 75.00383,-0.77354 0,-0.4308 -1.25007,-5.10173 -2.77792,-10.37983 -1.52786,-5.27811 -2.77792,-9.90082 -2.77792,-10.27271 0,-1.06086 1.66533,-1.31249 10.86526,-1.64171 l 8.59241,-0.3075 7.53665,16.10872 c 8.03865,17.18169 10.8864,23.63068 10.8864,24.65326 0,0.49198 -3.85765,0.71135 -17.04632,0.96935 -18.35185,0.35901 -105.28672,0.27677 -164.86564,-0.15596 z"
       id="path3401"
       inkscape:connector-curvature="0"
       transform="translate(0,782.3622)" />
    <path
       style="fill:#550000;fill-opacity:0.21176471"
       d="m 153.70588,228.12036 c -21.66778,-0.1863 -39.45583,-0.38007 -39.529,-0.4306 -0.35186,-0.24297 2.11507,-5.0866 10.18251,-19.99256 13.15657,-24.309 20.22096,-37.94385 30.64318,-59.14375 20.90703,-42.52712 31.89687,-67.597601 51.9746,-118.566655 l 4.12842,-10.480333 6.1504,0.02677 c 8.6278,0.03756 19.49287,0.739284 20.04842,1.294839 0.5546,0.554598 -2.75861,8.347849 -11.99969,28.22535 -8.97806,19.311779 -46.21853,99.230426 -57.07366,122.480996 -11.94811,25.59162 -17.3031,37.31762 -17.3031,37.88916 0,0.29723 28.27858,0.48261 75.00382,0.49168 67.19197,0.013 75.00383,-0.0664 75.00383,-0.76293 0,-0.42762 -1.27283,-5.22544 -2.82851,-10.66183 -2.0765,-7.25642 -2.6791,-10.03375 -2.26656,-10.44629 0.72761,-0.72761 6.40978,-1.28689 13.4746,-1.32628 l 5.60162,-0.0312 7.47949,16.03617 c 9.97607,21.38891 11.17686,24.25934 10.45175,24.98445 -0.68867,0.68867 -116.12687,0.95482 -179.14212,0.41303 z"
       id="path3403"
       inkscape:connector-curvature="0"
       transform="translate(0,782.3622)" />
    <path
       style="fill:#550000;fill-opacity:0.21176471"
       d="m 195.80198,228.36192 c -0.13537,-0.13538 -16.70819,-0.28793 -36.82848,-0.33902 -20.12029,-0.0511 -38.45332,-0.18479 -40.74006,-0.29712 l -4.15771,-0.20424 0.70354,-1.6838 c 0.38695,-0.9261 4.55383,-8.80705 9.25974,-17.51324 13.53722,-25.04456 20.32655,-38.14546 30.71362,-59.26597 20.62945,-41.94681 32.63179,-69.220051 50.95602,-115.78874 l 5.41571,-13.763328 5.88848,0.02479 c 7.31893,0.03081 19.49816,0.752747 20.21945,1.198527 0.68722,0.424726 0.037,2.062094 -6.63418,16.706891 -5.9424,13.044874 -5.73096,12.589926 -41.90006,90.15611 -34.5646,74.12531 -37.88745,81.36828 -37.50479,81.75099 0.17812,0.17815 33.94302,0.38295 75.0331,0.45511 67.67182,0.11885 74.70925,0.0564 74.70925,-0.66338 0,-0.43701 -1.11074,-4.70082 -2.46832,-9.47511 -3.48976,-12.27268 -3.3624,-11.3782 -1.71021,-12.01127 0.77033,-0.29518 5.15367,-0.66529 9.74076,-0.82248 l 8.34014,-0.2858 7.51369,16.10911 c 9.97821,21.39296 11.25251,24.42337 10.47279,24.90527 -1.25724,0.77701 -136.25738,1.5718 -137.02248,0.8067 z"
       id="path3405"
       inkscape:connector-curvature="0"
       transform="translate(0,782.3622)" />
    <path
       style="fill:#803300;fill-opacity:0.21176471"
       d="m 155.2211,228.11694 c -22.50114,-0.20354 -40.97105,-0.4036 -41.04422,-0.44457 -0.34936,-0.19559 1.98087,-4.76712 9.86213,-19.34787 13.56182,-25.09007 20.33711,-38.16522 30.71049,-59.26597 20.76044,-42.22935 32.68118,-69.321404 50.98232,-115.866631 l 5.44223,-13.841219 11.16694,0.338162 c 13.29758,0.402684 14.95501,0.61119 14.95501,1.881355 0,1.559695 -4.83434,12.167454 -36.11871,79.253543 -49.13578,105.36657 -50.39769,108.1063 -49.98407,108.52003 0.1781,0.17815 33.943,0.3851 75.03311,0.4599 66.20224,0.12051 74.70928,0.0495 74.70928,-0.62323 0,-0.41758 -1.10516,-4.68353 -2.45592,-9.47991 -3.50155,-12.43359 -3.35184,-11.42782 -1.78942,-12.02185 0.73358,-0.27891 5.11628,-0.64991 9.73932,-0.82445 l 8.40553,-0.31736 7.15084,15.35348 c 7.33169,15.74175 10.41282,22.61894 10.98034,24.50851 0.2496,0.83102 0.0624,1.14727 -0.82807,1.39875 -1.77522,0.50136 -131.00855,0.73462 -176.91713,0.31933 z"
       id="path3407"
       inkscape:connector-curvature="0"
       transform="translate(0,782.3622)" />
    <path
       style="fill:#803300;fill-opacity:0.21176471"
       d="m 277.87889,146.15396 -8.66205,-20.32894 -29.0924,-0.13037 c -16.00083,-0.0717 -29.09241,-0.19599 -29.09241,-0.27618 0,-0.0802 2.01635,-4.56722 4.48077,-9.97116 l 4.48078,-9.82534 20.79937,0.002 c 18.26489,0.002 20.77415,-0.0908 20.5923,-0.75761 -0.1139,-0.41764 -4.67144,-11.812121 -10.12786,-25.321076 -5.45643,-13.508755 -9.92078,-24.790212 -9.92078,-25.069701 0,-0.279489 1.78431,-4.392409 3.96513,-9.139821 3.83718,-8.353119 3.98554,-8.587234 4.59736,-7.254978 1.32779,2.891258 57.21378,127.172296 57.4558,127.772016 0.19897,0.49305 -2.05282,0.63127 -10.27959,0.63097 l -10.53438,-3.9e-4 -8.66204,-20.32893 z"
       id="path3409"
       inkscape:connector-curvature="0"
       transform="translate(0,782.3622)" />
    <path
       style="fill:#803300;fill-opacity:0.21176471"
       d="m 288.08683,166.48366 c -1.53505,-0.28461 -2.18299,-1.35471 -5.04611,-8.33376 -0.34189,-0.83338 -1.00109,-2.36755 -1.46489,-3.40927 -0.4638,-1.04172 -1.21871,-2.74635 -1.67758,-3.78807 -0.45887,-1.04172 -1.15358,-2.51907 -1.54379,-3.28299 -0.39021,-0.76393 -0.57013,-1.38896 -0.39982,-1.38896 0.1703,0 -0.01,-0.62504 -0.39983,-1.38896 -0.3902,-0.76393 -1.04636,-2.18446 -1.45812,-3.15673 -0.41175,-0.97227 -1.08958,-2.56326 -1.50626,-3.53553 l -1.51523,-3.53554 c -1.59105,-3.71244 -2.44526,-5.62953 -3.2611,-7.31887 l -0.84432,-1.74828 -28.42197,-0.13838 c -15.63209,-0.0761 -28.56295,-0.27947 -28.73525,-0.45192 -0.34275,-0.34304 0.1602,-1.7602 2.12936,-5.99991 0.70962,-1.52786 1.8571,-4.02799 2.54994,-5.55584 2.0608,-4.54446 3.36036,-7.14162 3.67428,-7.34305 0.1624,-0.10421 9.53788,-0.22455 20.8344,-0.26744 11.29651,-0.0429 20.53912,-0.21461 20.53912,-0.38161 0,-0.25341 -2.07924,-5.593221 -4.16475,-10.695724 -0.28385,-0.694479 -0.71297,-1.77408 -0.95359,-2.399112 -0.43345,-1.125916 -1.02072,-2.604057 -1.90634,-4.798224 -0.25228,-0.625032 -1.06856,-2.727412 -1.81396,-4.671956 -0.7454,-1.944544 -1.5896,-3.819639 -1.876,-4.166879 -0.2864,-0.34724 -0.35311,-0.631345 -0.14826,-0.631345 0.20486,0 1.7e-4,-0.568211 -0.45487,-1.262691 -0.45504,-0.69448 -0.68233,-1.262691 -0.50508,-1.262691 0.17725,0 -0.05,-0.568211 -0.50507,-1.262691 -0.45504,-0.694479 -0.68233,-1.26269 -0.50508,-1.26269 0.17725,0 -0.05,-0.568211 -0.50508,-1.262691 -0.45504,-0.69448 -0.70046,-1.262691 -0.54539,-1.262691 0.15507,0 7.6e-4,-0.511389 -0.34287,-1.136421 -0.34366,-0.625032 -0.6671,-1.363706 -0.71876,-1.641498 -0.23918,-1.286124 -3.97548,-10.120771 -4.34373,-10.270933 -0.22849,-0.09317 -0.28987,-0.372583 -0.1364,-0.620907 0.15348,-0.248325 0.062,-0.857133 -0.20337,-1.352908 -0.32729,-0.611539 -0.26025,-1.429793 0.20846,-2.544531 0.37998,-0.903718 0.69716,-1.754389 0.70483,-1.890381 0.008,-0.135991 0.58825,-1.380591 1.29018,-2.765777 0.70192,-1.385185 1.28014,-2.690527 1.28491,-2.900758 0.0195,-0.858709 3.79709,-7.690884 4.18254,-7.564586 0.22918,0.07509 0.3887,0.307272 0.35449,0.515951 -0.0342,0.208679 0.476,1.453061 1.1338,2.765293 2.51286,5.012837 3.40379,6.944853 3.3772,7.323606 -0.0151,0.215623 0.51069,1.465687 1.16849,2.777919 2.59376,5.174237 3.50239,7.132552 3.37841,7.281313 -0.0712,0.08543 0.33435,1.064463 0.90123,2.175631 0.56687,1.111168 1.00128,2.133947 0.96535,2.272843 -0.0359,0.138896 0.67224,1.559423 1.5737,3.156727 0.90146,1.597304 1.50184,2.904189 1.33418,2.904189 -0.16767,0 0.29454,1.022779 1.02712,2.272843 0.73259,1.250064 1.19457,2.272843 1.02662,2.272843 -0.16794,0 0.2361,1.079601 0.89786,2.399112 2.51327,5.011279 3.41104,6.957493 3.38441,7.336842 -0.0152,0.215624 0.51068,1.465688 1.16848,2.77792 2.62744,5.241416 3.50432,7.139215 3.42877,7.42082 -0.0435,0.162155 0.45912,1.368474 1.11692,2.680707 2.62744,5.241416 3.50431,7.139216 3.42877,7.420816 -0.0435,0.16216 0.45911,1.36848 1.11692,2.68071 2.62744,5.24141 3.50431,7.13921 3.42877,7.42082 -0.0435,0.16215 0.45911,1.36847 1.11691,2.68071 2.65167,5.28973 3.5006,7.13327 3.35298,7.28131 -0.0852,0.0854 0.42712,1.29174 1.13846,2.6807 0.71134,1.38896 1.7366,3.54816 2.27836,4.79823 0.54176,1.25006 1.50681,3.33937 2.14454,4.6429 0.63774,1.30353 1.12393,2.50273 1.08042,2.66489 -0.0435,0.16215 0.45912,1.36847 1.11692,2.6807 2.62744,5.24142 3.50432,7.13922 3.42877,7.42082 -0.0435,0.16216 0.45912,1.36847 1.11692,2.68071 2.74681,5.47954 3.6174,7.35972 3.71466,8.02241 0.0565,0.3852 0.53949,1.44052 1.07324,2.34515 0.89183,1.51154 1.84535,4.3014 1.52423,4.45964 -0.48838,0.24066 -17.69462,0.64178 -18.79305,0.43812 z"
       id="path3411"
       inkscape:connector-curvature="0"
       transform="translate(0,782.3622)" />
    <path
       style="fill:#803300;fill-opacity:0.21176471"
       d="m 286.89987,165.5799 c -0.49706,-0.49706 -2.69218,-5.09957 -4.87803,-10.22779 -2.18586,-5.12822 -5.92998,-13.86973 -8.32027,-19.42557 l -4.34599,-10.10152 -18.4289,-0.30955 c -10.1359,-0.17026 -23.03141,-0.34072 -28.6567,-0.37881 -8.6818,-0.0588 -10.2278,-0.18273 -10.2278,-0.81997 0,-0.75262 6.8623,-16.16598 7.68131,-17.25293 0.77141,-1.02377 3.34181,-1.16286 22.74558,-1.23077 l 19.06267,-0.0667 -0.31679,-1.26217 c -0.17423,-0.6942 -4.60449,-12.033431 -9.84502,-25.198301 -5.24054,-13.164871 -9.52825,-24.290519 -9.52825,-24.723664 0,-1.625791 6.82972,-16.388256 7.57615,-16.375885 0.24257,0.004 1.01155,1.643241 7.3395,15.645398 1.56928,3.4724 3.99234,8.790253 5.38459,11.817452 1.39226,3.027198 3.16335,7.004674 3.93576,8.838835 0.77241,1.83416 2.59086,5.948606 4.04098,9.143214 1.45013,3.194607 3.49897,7.740293 4.55298,10.101525 1.05401,2.361232 3.09957,6.906916 4.54569,10.101526 1.44612,3.19461 3.49168,7.74029 4.54569,10.10152 1.054,2.36124 3.09971,6.90692 4.546,10.10153 2.82063,6.23025 7.99692,17.76897 11.10232,24.74874 1.05055,2.36123 2.87341,6.3387 4.0508,8.83883 1.17738,2.50013 2.43248,5.3648 2.7891,6.36593 l 0.64841,1.82025 -5.33344,0.32633 c -9.68138,0.59236 -13.65292,0.43599 -14.66634,-0.57743 z"
       id="path3413"
       inkscape:connector-curvature="0"
       transform="translate(0,782.3622)" />
    <path
       style="fill:#803300;fill-opacity:0.21176471"
       d="m 287.94894,165.96988 c -1.44626,-0.58211 -2.51893,-2.8006 -11.29054,-23.35108 l -7.27593,-17.04632 -8.8459,-0.0616 c -20.66625,-0.14399 -47.9312,-0.72024 -48.22943,-1.01935 -0.17733,-0.17784 1.02671,-3.35982 2.67564,-7.07106 4.25565,-9.57816 4.70555,-10.44906 5.60239,-10.84478 0.44051,-0.19437 9.32409,-0.44037 19.74129,-0.54668 10.41719,-0.10631 19.46466,-0.30577 20.10547,-0.44324 0.93808,-0.20126 1.09676,-0.46813 0.81428,-1.36956 -0.19296,-0.61578 -3.80942,-9.870041 -8.03658,-20.565031 -12.43407,-31.459055 -11.5094,-28.768835 -10.68537,-31.087703 1.26461,-3.558694 6.30522,-13.864086 6.78125,-13.864086 0.25454,0 2.80503,5.170719 5.66776,11.490485 2.86272,6.319767 5.87685,12.967834 6.69805,14.773481 0.8212,1.805648 3.82731,8.510536 6.68025,14.89975 5.85973,13.122983 22.50203,50.128854 31.88956,70.909724 3.43768,7.60985 6.25032,14.1092 6.25032,14.44299 0,0.99542 -16.29635,1.65816 -18.54251,0.75409 z"
       id="path3415"
       inkscape:connector-curvature="0"
       transform="translate(0,782.3622)" />
    <path
       style="fill:#803300;fill-opacity:0.21176471"
       d="m 288.91441,166.00512 c -0.91692,-0.22799 -1.74281,-0.49768 -1.83532,-0.59934 -0.69362,-0.76216 -5.20613,-10.72107 -10.86114,-23.97005 l -6.70288,-15.70402 -12.90847,-0.33215 c -7.09966,-0.18268 -17.49557,-0.33216 -23.10203,-0.33216 -5.60646,0 -12.63114,-0.14914 -15.61039,-0.33143 l -5.41683,-0.33143 0.31515,-1.25563 c 0.57366,-2.28568 6.36774,-14.9853 7.24542,-15.88073 0.77863,-0.79439 2.79922,-0.91193 20.95029,-1.21878 11.0487,-0.18678 20.21022,-0.53646 20.35892,-0.77707 0.14871,-0.24061 -3.81204,-10.829096 -8.80166,-23.529965 C 241.52663,53.694386 242.1311,55.41051 242.52818,53.302701 c 0.17862,-0.948143 1.76555,-4.678592 3.5265,-8.289887 l 3.20174,-6.565992 1.28739,2.525381 c 1.44362,2.831835 11.72958,25.389089 18.2161,39.948161 2.33999,5.252123 11.78685,26.300956 20.99303,46.775186 9.20618,20.47423 16.73851,37.33204 16.73851,37.46179 0,0.78089 -14.94663,1.5018 -17.57704,0.84778 z"
       id="path3417"
       inkscape:connector-curvature="0"
       transform="translate(0,782.3622)" />
    <path
       style="fill:#803300;fill-opacity:0.21176471"
       d="m 287.15814,165.09233 c -1.04205,-1.15145 -3.56466,-6.66824 -11.31552,-24.74637 -6.00034,-13.99521 -6.40423,-14.77433 -7.66684,-14.78956 -19.41099,-0.2341 -55.31101,-1.01328 -55.50236,-1.20463 -0.33544,-0.33544 1.41231,-4.70016 4.69145,-11.71613 2.4727,-5.29055 2.72177,-5.63013 4.33252,-5.90709 0.93996,-0.16162 9.89125,-0.43795 19.89176,-0.61406 10.00051,-0.17611 18.58999,-0.43412 19.08773,-0.57337 0.66272,-0.18538 0.81578,-0.54648 0.57173,-1.34885 -0.18329,-0.60262 -4.42037,-11.550764 -9.41573,-24.329194 -4.99536,-12.778429 -9.19615,-23.929797 -9.3351,-24.780817 -0.35144,-2.152554 6.18209,-16.788706 7.08746,-15.877028 0.38409,0.386767 8.48596,18.093546 19.64326,42.930689 19.59075,43.61075 36.58816,81.57943 36.88372,82.39054 0.40241,1.10437 -2.28689,1.45212 -11.22974,1.45212 -5.95827,0 -7.03399,-0.12342 -7.72434,-0.88625 z"
       id="path3419"
       inkscape:connector-curvature="0"
       transform="translate(0,782.3622)" />
    <path
       style="fill:#803300;fill-opacity:0.21176471"
       d="m 287.22872,164.84216 c -1.16703,-1.32154 -2.875,-5.0208 -11.33146,-24.54264 -3.4105,-7.87317 -6.30216,-14.41611 -6.42593,-14.53987 -0.12376,-0.12376 -12.6982,-0.44828 -27.9432,-0.72114 -15.245,-0.27286 -27.99562,-0.59558 -28.33472,-0.71716 -0.479,-0.17173 -0.46489,-0.64835 0.0633,-2.1366 1.43385,-4.04028 5.95712,-13.57735 6.8868,-14.52045 0.89936,-0.91233 2.01089,-1.01568 14.49286,-1.34747 7.43533,-0.19765 16.2462,-0.3815 19.5797,-0.40858 3.33351,-0.0271 6.37544,-0.24841 6.75985,-0.49186 0.55994,-0.35463 -0.93615,-4.64696 -7.5232,-21.584282 -12.22607,-31.436953 -11.3076,-28.607214 -10.28516,-31.687799 1.01265,-3.051105 4.39567,-10.516797 5.44347,-12.012749 0.70127,-1.001201 0.81043,-0.89452 2.47818,2.422038 2.2958,4.565516 8.41402,18.053194 29.75436,65.593752 22.24428,49.55431 25.14282,56.0906 25.14282,56.69774 0,0.73674 -3.92744,1.13349 -11.22039,1.13349 -6.14164,0 -6.59394,-0.0682 -7.53726,-1.13642 z"
       id="path3421"
       inkscape:connector-curvature="0"
       transform="translate(0,782.3622)" />
    <path
       style="fill:#803300;fill-opacity:0.21176471"
       d="m 288.23885,165.6733 c -1.22964,-0.37468 -3.1544,-4.29628 -11.2159,-22.85184 -4.01812,-9.24873 -7.41314,-16.92333 -7.54448,-17.05467 -0.218,-0.218 -39.03693,-1.13991 -50.36522,-1.19612 -5.99894,-0.0298 -6.51784,-0.29666 -5.60916,-2.88494 1.16874,-3.32905 6.45201,-14.13298 7.11012,-14.53971 0.34635,-0.21406 9.5258,-0.61211 20.39878,-0.88456 10.87298,-0.27245 19.9608,-0.67408 20.19516,-0.89252 0.4501,-0.41952 -0.40534,-2.76307 -10.41625,-28.536321 -7.76866,-20.000524 -8.12523,-21.07686 -7.79585,-23.532597 0.29613,-2.207781 5.60001,-13.590509 6.33262,-13.590509 0.6621,0 5.08261,9.655585 37.57539,82.074897 19.4749,43.40529 19.19939,42.7639 18.61866,43.34462 -0.52888,0.52889 -15.76026,1.00852 -17.28387,0.54427 z"
       id="path3423"
       inkscape:connector-curvature="0"
       transform="translate(0,782.3622)" />
    <path
       style="fill:#803300;fill-opacity:0.21176471"
       d="m 288.3087,165.37084 c -1.44799,-0.77319 -3.33579,-4.3975 -8.62818,-16.56485 -1.99369,-4.58357 -5.08569,-11.66208 -6.87111,-15.73001 l -3.2462,-7.39626 -9.18881,-0.30458 c -5.05384,-0.16753 -17.63659,-0.47576 -27.96166,-0.68497 -10.32507,-0.20921 -18.9277,-0.53562 -19.11696,-0.72535 -0.52428,-0.52557 0.61249,-3.5832 3.83761,-10.32227 1.67291,-3.49563 3.32171,-6.27346 3.84369,-6.47569 0.50275,-0.19476 9.32361,-0.57313 19.60191,-0.84081 10.27831,-0.26767 19.21213,-0.59999 19.85294,-0.73847 0.93273,-0.20158 1.09774,-0.47511 0.82728,-1.3714 -0.18581,-0.61578 -4.31022,-11.441763 -9.16536,-24.057745 -4.85514,-12.615982 -8.95075,-23.697451 -9.10135,-24.625486 -0.32065,-1.975947 1.05066,-6.076152 4.00581,-11.977364 1.71996,-3.434644 2.09275,-3.884231 2.70938,-3.267594 0.82534,0.82534 9.46271,19.760497 35.67745,78.213419 20.79685,46.37225 20.76772,46.30451 20.08894,46.72402 -0.26485,0.16368 -3.95131,0.41507 -8.19212,0.55863 -5.87262,0.1988 -8.01155,0.1003 -8.97326,-0.41322 z"
       id="path3425"
       inkscape:connector-curvature="0"
       transform="translate(0,782.3622)" />
    <path
       style="fill:#803300;fill-opacity:0.21176471"
       d="m 288.81378,165.57302 c -1.71683,-0.51291 -3.72725,-4.44874 -12.17647,-23.8381 l -6.933,-15.9099 -7.99667,-0.3681 c -4.39816,-0.20246 -17.01839,-0.54951 -28.04494,-0.77121 -11.02656,-0.22171 -20.20757,-0.56238 -20.40224,-0.75706 -0.76674,-0.76674 6.3019,-16.21555 7.65747,-16.73573 0.41936,-0.16092 9.44669,-0.54358 20.06075,-0.85035 13.61879,-0.39362 19.48412,-0.73571 19.92971,-1.16238 0.50145,-0.48015 -1.07038,-5.01911 -7.63664,-22.05223 -10.94093,-28.381117 -10.75328,-27.803081 -9.9729,-30.720817 0.92283,-3.450367 5.6068,-12.906764 6.13258,-12.380982 1.06645,1.066444 9.56702,19.636162 36.73249,80.243019 19.31156,43.08459 19.86544,44.38249 19.11857,44.80047 -0.93352,0.52242 -14.96897,0.95142 -16.46871,0.50337 z"
       id="path3427"
       inkscape:connector-curvature="0"
       transform="translate(0,782.3622)" />
    <path
       style="fill:#808080;fill-opacity:0.21176471"
       d="m 289.06632,165.56828 c -1.99184,-0.4575 -3.08986,-2.55987 -12.18388,-23.32828 l -7.18775,-16.41498 -7.99186,-0.36092 c -4.39552,-0.19851 -17.02984,-0.56182 -28.07628,-0.80735 -11.04643,-0.24554 -20.22744,-0.58944 -20.40224,-0.76424 -0.67523,-0.67523 5.68692,-14.69615 7.35252,-16.20349 0.72349,-0.65476 4.0146,-0.87267 20.28189,-1.3429 13.36316,-0.38629 19.60677,-0.74421 20.02284,-1.14782 0.63552,-0.61649 0.62981,-0.63251 -11.63632,-32.658829 -7.31714,-19.104715 -7.01686,-17.601719 -4.67447,-23.397714 2.16905,-5.367059 3.83054,-8.511132 4.63774,-8.776039 0.30156,-0.09897 2.06367,3.00497 3.91579,6.897638 7.12142,14.967321 51.59825,114.245684 52.12826,116.357404 0.17082,0.68061 0.1217,1.3534 -0.10915,1.49509 -0.70917,0.43527 -14.46625,0.82242 -16.07709,0.45243 z"
       id="path3429"
       inkscape:connector-curvature="0"
       transform="translate(0,782.3622)" />
    <path
       style="fill:#ffffff;fill-opacity:0.21176471"
       d="M 201.18304,262.88025 C 156.56556,259.93824 115.16843,244.15869 81.985044,217.44494 58.56208,198.58866 39.301099,175.11695 23.308491,145.94084 l -4.27623,-7.80134 2.914683,-3.31986 C 27.212993,128.82152 51.31903,104.57015 60.429241,96.105329 103.1016,56.455981 140.37552,31.95298 176.23508,19.977301 c 67.40263,-22.509819 130.39651,-2.544284 205.76527,65.216068 10.01262,9.001848 32.64283,31.583371 43.60129,43.507471 6.90654,7.51514 8.13267,9.08186 7.70796,9.84899 -0.27777,0.50174 -1.33312,3.07145 -2.34522,5.71047 -9.38525,24.47193 -31.36591,50.32423 -60.0271,70.6002 -48.13824,34.05473 -111.16332,51.88315 -169.75424,48.01975 z m 137.12821,-31.41611 c 0,-0.0959 -4.98836,-10.72144 -11.08525,-23.61231 l -11.08527,-23.43797 -12.40078,-0.13509 c -6.82044,-0.0743 -12.40079,0.045 -12.40079,0.26516 0,0.22014 1.70463,5.50279 3.78807,11.73923 2.08344,6.23643 3.78807,11.51511 3.78807,11.7304 0,0.21528 -32.75325,0.39143 -72.78502,0.39143 -58.02199,0 -72.73531,-0.12806 -72.53996,-0.63135 0.13478,-0.34724 20.17905,-43.20928 44.54282,-95.24898 24.36377,-52.039699 44.22202,-94.685033 44.12942,-94.767409 -0.0926,-0.08237 -7.51984,-0.233892 -16.50502,-0.336703 l -16.33668,-0.186929 -6.19719,16.414979 c -7.03081,18.623081 -9.31232,24.356836 -16.09494,40.448821 -20.1899,47.901211 -46.76247,101.728151 -71.87666,145.597511 -3.1572,5.51498 -5.74037,10.23113 -5.74037,10.48033 0,0.26229 14.62211,0.4839 34.724,0.52626 41.77855,0.0881 177.36353,0.69368 187.13075,0.83587 3.81964,0.0556 6.9448,0.0226 6.9448,-0.0733 z M 309.25131,167.4285 c 0.34643,-0.34732 -59.38309,-133.740096 -59.89609,-133.764754 -0.4289,-0.02062 -9.53384,19.825426 -9.53384,20.78092 0,0.41859 4.43204,11.749046 9.84899,25.178792 5.41694,13.429746 9.84898,24.446372 9.84898,24.481382 0,0.035 -9.11306,0.0498 -20.25126,0.0328 l -20.25126,-0.0309 -5.00255,11.02061 c -2.7514,6.06133 -5.00255,11.23023 -5.00255,11.48644 0,0.27763 11.96865,0.51849 29.62265,0.59615 l 29.62266,0.13031 8.63687,20.35718 8.63687,20.35718 11.70175,-0.15413 c 6.43595,-0.0848 11.8444,-0.29716 12.01878,-0.47198 z"
       id="path3445"
       inkscape:connector-curvature="0"
       transform="translate(0,782.3622)" />
    <path
       style="fill:none;fill-rule:evenodd;stroke:#000000;stroke-width:1px;stroke-linecap:butt;stroke-linejoin:miter;stroke-opacity:1"
       d="m 241.875,800.39791 c 7.32143,15.98215 7.32143,15.98215 7.32143,15.98215 l 0,0 0,0"
       id="path3447"
       inkscape:connector-curvature="0" />
    <path
       style="fill:#00ffff;fill-rule:evenodd;stroke:#000000;stroke-width:1px;stroke-linecap:butt;stroke-linejoin:miter;stroke-opacity:1"
       d="m 308.6016,949.32664 7.32361,19.1929"
       id="path3449"
       inkscape:connector-curvature="0" />
    <path
       style="fill:#00ffff;fill-opacity:0.21176471"
       d="M 153.79946,207.62685 C 154.1933,206.97918 231.8488,41.311814 239.14491,25.554039 l 2.56912,-5.548658 3.31197,7.302109 3.31196,7.30211 -4.55197,9.878227 -4.55197,9.878228 10.03368,24.890211 10.03368,24.890214 -20.19085,-0.1564 -20.19085,-0.1564 -4.95164,10.94919 c -2.72341,6.02205 -4.95165,11.36323 -4.95165,11.86929 0,0.53244 12.47058,0.9201 29.5981,0.9201 l 29.5981,0 8.47124,20.17263 8.47124,20.17262 11.55318,0.28297 11.55316,0.28296 2.87772,7.82868 2.8777,7.82869 -11.58905,0 c -6.37397,0 -11.58903,0.20669 -11.58903,0.45932 0,0.25262 1.81827,5.55653 4.04061,11.78644 2.22233,6.22992 4.04061,11.47804 4.04061,11.66251 0,0.18446 -32.75578,0.33539 -72.7906,0.33539 -40.03483,0 -72.58329,-0.34093 -72.32991,-0.75762 z"
       id="path3451"
       inkscape:connector-curvature="0"
       transform="translate(0,782.3622)" />
  </g>
</svg>
